<svg xmlns="http://www.w3.org/2000/svg" width="42.395" height="77.071" viewBox="0 0 42.395 77.071">
  <path id="new_5" d="M35.46,63.595a3.849,3.849,0,0,1-3.847,3.847H14.272a3.847,3.847,0,0,1,0-7.694H31.613A3.849,3.849,0,0,1,35.46,63.595ZM27.752,69.38H20.043a3.847,3.847,0,0,0,0,7.694h7.709a3.847,3.847,0,1,0,0-7.694ZM8.487,53.963a3.852,3.852,0,0,0,3.861,3.847H35.475a3.847,3.847,0,1,0,0-7.694H12.349A3.852,3.852,0,0,0,8.487,53.963ZM39.849,19.538,5.167,33.031a3.855,3.855,0,0,0-1.61,6l7.709,9.632a3.848,3.848,0,1,0,6.013-4.8l-4.431-5.543,29.794-11.6a3.853,3.853,0,0,0-2.793-7.181ZM6.564,26.99a3.967,3.967,0,0,0,1.4-.256L42.642,13.225a3.853,3.853,0,0,0-2.793-7.181L5.167,19.538a3.858,3.858,0,0,0,1.4,7.452Zm0-13.494a3.728,3.728,0,0,0,1.51-.313L21.568,7.4A3.852,3.852,0,1,0,18.533.316L5.039,6.1a3.854,3.854,0,0,0,1.525,7.4Z" transform="translate(-2.703 -0.003)" />
</svg>
