<svg
  width="26"
  height="27"
  viewBox="0 0 26 27"
  fill="none"
  xmlns="http://www.w3.org/2000/svg"
>
  <g clip-path="url(#clip0_523_1061)">
    <rect
      width="25.5374"
      height="25.5374"
      transform="translate(0.276855 0.88916)"
      fill="#FEFEFE"
    />
    <path
      d="M25.8146 12.759C25.7152 12.9289 25.6434 13.1257 25.5104 13.2631C25.2261 13.5554 24.8638 13.6341 24.4778 13.493C24.0937 13.3518 23.8782 13.0607 23.8276 12.6541C23.8132 12.5391 23.8194 12.4217 23.8194 12.3055C23.8194 10.5522 23.8194 8.79886 23.8194 7.04489C23.8188 5.71756 22.983 4.88117 21.6582 4.8793C21.2934 4.8793 20.9286 4.8793 20.5263 4.8793C20.5263 5.22847 20.5382 5.56577 20.5238 5.90245C20.4901 6.68323 19.6581 7.1286 19.004 6.71884C18.6911 6.5227 18.5406 6.2285 18.5349 5.86184C18.5299 5.54703 18.5337 5.23159 18.5337 4.89804H13.9944C13.9944 5.19162 13.9963 5.48769 13.9944 5.78377C13.99 6.42089 13.5865 6.86625 13.0087 6.8725C12.4209 6.87937 12.0043 6.42963 11.9999 5.78189C11.998 5.49206 11.9999 5.20223 11.9999 4.89617H7.51119C7.51119 5.19661 7.51306 5.49331 7.51119 5.78939C7.50619 6.42401 7.09767 6.86937 6.51988 6.8725C5.94145 6.87562 5.52294 6.43026 5.51732 5.80063C5.5142 5.50331 5.51732 5.20536 5.51732 4.85182C4.92765 4.88242 4.34611 4.84557 3.79455 4.95738C2.88694 5.1404 2.30851 5.92556 2.27791 6.87312C2.26979 7.13047 2.27541 7.38844 2.27541 7.64579C2.27541 12.5242 2.27603 17.4019 2.27478 22.2803C2.27478 23.1541 2.61147 23.8418 3.41788 24.216C3.72209 24.3572 4.08938 24.4184 4.42856 24.4209C6.8803 24.4377 9.33141 24.4315 11.7831 24.4277C12.1155 24.4277 13.7058 24.4277 14.3139 24.4277C14.5375 24.682 12.9718 25.4065 12.8288 25.7801C12.6858 26.153 12.3997 26.361 12.0049 26.4159C11.9393 26.4253 11.8725 26.4234 11.8056 26.4234C9.30392 26.4234 6.80284 26.4309 4.30113 26.4216C2.35286 26.4141 0.75377 25.1061 0.363991 23.2172C0.315893 22.983 0.285285 22.74 0.285285 22.5008C0.280913 17.2738 0.270294 12.0463 0.287784 6.8194C0.29403 4.9199 1.6339 3.33646 3.49846 2.97043C3.90948 2.88985 4.34049 2.90484 4.76275 2.8861C5.00199 2.87549 5.24247 2.88423 5.51732 2.88423C5.51732 2.62501 5.53106 2.3789 5.51482 2.13405C5.47359 1.51629 5.7197 1.09279 6.31562 0.88916H6.71476C7.30943 1.09217 7.55679 1.51442 7.51556 2.13155C7.49932 2.37641 7.51306 2.62251 7.51306 2.86674H12.0018C12.0018 2.61064 12.0149 2.37016 11.9993 2.13155C11.958 1.51442 12.2054 1.09217 12.8001 0.88916H13.1992C13.7939 1.09217 14.0412 1.51442 14 2.13155C13.9838 2.37641 13.9975 2.62251 13.9975 2.86674H18.5362C18.5362 2.61002 18.5493 2.36953 18.5337 2.13155C18.4925 1.51442 18.7398 1.09217 19.3345 0.88916H19.7336C20.3283 1.09217 20.5757 1.51504 20.5344 2.13217C20.5182 2.37703 20.5319 2.62313 20.5319 2.88798C21.0285 2.88798 21.4933 2.86612 21.9555 2.89173C23.5296 2.9798 24.6939 3.7306 25.4035 5.13477C25.6047 5.53329 25.684 5.99302 25.8189 6.42464V12.7584L25.8146 12.759Z"
      fill="black"
    />
    <path
      d="M0.282448 12.759C0.381767 12.9289 0.453601 13.1257 0.586651 13.2631C0.870864 13.5554 1.23316 13.6341 1.61919 13.493C2.00335 13.3518 2.21885 13.0607 2.26945 12.6541C2.28381 12.5391 2.27756 12.4217 2.27756 12.3055C2.27756 10.5522 2.27756 8.79886 2.27756 7.04489C2.27819 5.71756 3.11397 4.88117 4.43884 4.8793C4.80363 4.8793 5.16843 4.8793 5.5707 4.8793C5.5707 5.22847 5.55883 5.56577 5.5732 5.90245C5.60693 6.68323 6.43896 7.1286 7.09296 6.71884C7.40591 6.5227 7.55645 6.2285 7.56207 5.86184C7.56707 5.54703 7.56332 5.23159 7.56332 4.89804H12.1026C12.1026 5.19162 12.1007 5.48769 12.1026 5.78377C12.107 6.42089 12.5105 6.86625 13.0883 6.8725C13.6761 6.87937 14.0927 6.42963 14.0971 5.78189C14.099 5.49206 14.0971 5.20223 14.0971 4.89617H18.5858C18.5858 5.19661 18.5839 5.49331 18.5858 5.78939C18.5908 6.42401 18.9993 6.86937 19.5771 6.8725C20.1556 6.87562 20.5741 6.43026 20.5797 5.80063C20.5828 5.50331 20.5797 5.20536 20.5797 4.85182C21.1694 4.88242 21.7509 4.84557 22.3025 4.95738C23.2101 5.1404 23.7885 5.92556 23.8191 6.87312C23.8272 7.13047 23.8216 7.38844 23.8216 7.64579C23.8216 12.5242 23.821 17.4019 23.8222 22.2803C23.8222 23.1541 23.4855 23.8418 22.6791 24.216C22.3749 24.3572 22.0076 24.4184 21.6684 24.4209C19.2167 24.4377 16.7656 24.4315 14.3139 24.4277C13.9816 24.4277 13.6848 24.5046 13.4612 24.7588C13.1982 25.0574 9.25434 25.4065 9.39739 25.7801C9.54043 26.153 8.28527 26.4066 14.0921 26.4159C8.78935 26.4159 14.2245 26.4234 14.2914 26.4234C16.7931 26.4234 19.2942 26.4309 21.7959 26.4216C23.7441 26.4141 25.3432 25.1061 25.733 23.2172C25.7811 22.983 25.8117 22.74 25.8117 22.5008C25.8161 17.2738 25.8267 12.0463 25.8092 6.8194C25.803 4.9199 24.4631 3.33646 22.5985 2.97043C22.1875 2.88985 21.7565 2.90484 21.3343 2.8861C21.095 2.87549 20.8545 2.88423 20.5797 2.88423C20.5797 2.62501 20.5659 2.3789 20.5822 2.13405C20.6234 1.51629 20.3773 1.09279 19.7814 0.88916H19.3822C18.7876 1.09217 18.5402 1.51442 18.5814 2.13155C18.5977 2.37641 18.5839 2.62251 18.5839 2.86674H14.0952C14.0952 2.61064 14.0821 2.37016 14.0977 2.13155C14.139 1.51442 13.8916 1.09217 13.2969 0.88916H12.8978C12.3031 1.09217 12.0558 1.51442 12.097 2.13155C12.1132 2.37641 12.0995 2.62251 12.0995 2.86674H7.56082C7.56082 2.61002 7.5477 2.36953 7.56332 2.13155C7.60455 1.51442 7.35719 1.09217 6.76252 0.88916H6.36337C5.76871 1.09217 5.52135 1.51504 5.56258 2.13217C5.57882 2.37703 5.56508 2.62313 5.56508 2.88798C5.06848 2.88798 4.60375 2.86612 4.14151 2.89173C2.5674 2.9798 1.40306 3.7306 0.693464 5.13477C0.492328 5.53329 0.413 5.99302 0.278076 6.42464V12.7584L0.282448 12.759Z"
      fill="black"
    />
    <path
      d="M7.50891 11.3699C7.50454 11.9183 7.04792 12.3655 6.49949 12.358C5.95105 12.3505 5.5063 11.8902 5.51754 11.3424C5.52816 10.8039 5.97603 10.3661 6.51448 10.3667C7.06292 10.3673 7.51329 10.8214 7.50891 11.3699Z"
      fill="black"
    />
    <path
      d="M10.859 12.358C10.3106 12.3618 9.85707 11.9114 9.85645 11.363C9.85645 10.8146 10.3093 10.3636 10.8578 10.3667C11.3962 10.3698 11.8409 10.8108 11.8478 11.3493C11.8547 11.8977 11.4068 12.3543 10.859 12.358Z"
      fill="black"
    />
    <path
      d="M16.1872 11.3507C16.194 11.8991 15.7455 12.3551 15.1971 12.3582C14.6487 12.3613 14.1952 11.9103 14.1958 11.3619C14.1958 10.8235 14.6349 10.3769 15.1734 10.3669C15.7212 10.3569 16.1809 10.8022 16.1872 11.3507Z"
      fill="black"
    />
    <path
      d="M19.541 12.358C18.9925 12.3636 18.5372 11.9152 18.5347 11.3667C18.5322 10.8183 18.9838 10.3655 19.5322 10.3667C20.0707 10.368 20.5167 10.8071 20.526 11.3455C20.5354 11.8933 20.0888 12.3518 19.541 12.358Z"
      fill="black"
    />
    <path
      d="M6.52013 16.6974C5.9717 16.7011 5.5182 16.2508 5.51758 15.7024C5.51758 15.1539 5.97045 14.7029 6.51889 14.7061C7.05733 14.7092 7.50208 15.1502 7.50895 15.6886C7.51582 16.237 7.06795 16.6936 6.52013 16.6974Z"
      fill="black"
    />
    <path
      d="M15.2643 16.6974C14.7158 16.7011 14.2623 16.2508 14.2617 15.7024C14.2617 15.1539 14.7146 14.7029 15.263 14.7061C15.8015 14.7092 16.2462 15.1502 16.2531 15.6886C16.26 16.237 15.8121 16.6936 15.2643 16.6974Z"
      fill="black"
    />
    <path
      d="M10.8402 14.7061C11.3886 14.6993 11.8446 15.1477 11.8477 15.6962C11.8509 16.2446 11.3999 16.6981 10.8521 16.6981C10.3136 16.6981 9.86636 16.259 9.85637 15.7205C9.84637 15.1727 10.2917 14.7124 10.8402 14.7061Z"
      fill="black"
    />
    <path
      d="M19.587 14.7061C20.1354 14.6993 20.5914 15.1477 20.5946 15.6962C20.5977 16.2446 20.1467 16.6981 19.5989 16.6981C19.0604 16.6981 18.6132 16.259 18.6032 15.7205C18.5932 15.1727 19.0386 14.7124 19.587 14.7061Z"
      fill="black"
    />
    <path
      d="M7.509 20.0376C7.51025 20.5861 7.05801 21.0377 6.50957 21.0358C5.96113 21.0339 5.51201 20.5786 5.51763 20.0301C5.52325 19.4917 5.96613 19.0495 6.50457 19.0445C7.05301 19.0395 7.50775 19.4892 7.509 20.0376Z"
      fill="black"
    />
    <path
      d="M16.2531 20.0376C16.2544 20.5861 15.8021 21.0377 15.2537 21.0358C14.7053 21.0339 14.2561 20.5786 14.2618 20.0301C14.2674 19.4917 14.7103 19.0495 15.2487 19.0445C15.7972 19.0395 16.2519 19.4892 16.2531 20.0376Z"
      fill="black"
    />
    <path
      d="M10.8466 19.0444C11.395 19.0413 11.8485 19.4923 11.8479 20.0407C11.8479 20.5892 11.3938 21.0395 10.8453 21.0358C10.3069 21.032 9.86276 20.5904 9.85651 20.052C9.85026 19.5036 10.2981 19.0476 10.8466 19.0444Z"
      fill="black"
    />
    <path
      d="M19.5932 19.0444C20.1416 19.0413 20.5951 19.4923 20.5945 20.0407C20.5945 20.5892 20.1403 21.0395 19.5919 21.0358C19.0535 21.032 18.6093 20.5904 18.6031 20.052C18.5968 19.5036 19.0447 19.0476 19.5932 19.0444Z"
      fill="black"
    />
  </g>
  <defs>
    <clipPath id="clip0_523_1061">
      <rect
        width="25.5374"
        height="25.5374"
        fill="white"
        transform="translate(0.276855 0.88916)"
      />
    </clipPath>
  </defs>
</svg>
