<svg
  width="27"
  height="27"
  viewBox="0 0 27 27"
  fill="none"
  xmlns="http://www.w3.org/2000/svg"
>
  <g clip-path="url(#clip0_523_1045)">
    <path
      d="M26.1139 12.759C26.0146 12.9289 25.9427 13.1257 25.8097 13.2631C25.5255 13.5554 25.1632 13.6341 24.7771 13.493C24.393 13.3518 24.1775 13.0607 24.1269 12.6541C24.1125 12.5391 24.1188 12.4217 24.1188 12.3055C24.1188 10.5522 24.1188 8.79886 24.1188 7.04489C24.1181 5.71756 23.2824 4.88117 21.9575 4.8793C21.5927 4.8793 21.2279 4.8793 20.8256 4.8793C20.8256 5.22847 20.8375 5.56577 20.8231 5.90245C20.7894 6.68323 19.9574 7.1286 19.3034 6.71884C18.9904 6.5227 18.8399 6.2285 18.8343 5.86184C18.8293 5.54703 18.833 5.23159 18.833 4.89804H14.2937C14.2937 5.19162 14.2956 5.48769 14.2937 5.78377C14.2893 6.42089 13.8858 6.86625 13.308 6.8725C12.7202 6.87937 12.3036 6.42963 12.2992 5.78189C12.2973 5.49206 12.2992 5.20223 12.2992 4.89617H7.8105C7.8105 5.19661 7.81238 5.49331 7.8105 5.78939C7.80551 6.42401 7.39699 6.86937 6.81919 6.8725C6.24077 6.87562 5.82226 6.43026 5.81664 5.80063C5.81351 5.50331 5.81664 5.20536 5.81664 4.85182C5.22697 4.88242 4.64542 4.84557 4.09386 4.95738C3.18625 5.1404 2.60783 5.92556 2.57722 6.87312C2.5691 7.13047 2.57472 7.38844 2.57472 7.64579C2.57472 12.5242 2.57535 17.4019 2.5741 22.2803C2.5741 23.1541 2.91078 23.8418 3.7172 24.216C4.0214 24.3572 4.38869 24.4184 4.72788 24.4209C7.17961 24.4377 9.63072 24.4315 12.0825 24.4277C12.4148 24.4277 12.7115 24.5046 12.9351 24.7588C13.1981 25.0574 13.2712 25.4065 13.1281 25.7801C12.9851 26.153 12.699 26.361 12.3042 26.4159C12.2386 26.4253 12.1718 26.4234 12.1049 26.4234C9.60324 26.4234 7.10216 26.4309 4.60045 26.4216C2.65218 26.4141 1.05309 25.1061 0.663307 23.2172C0.615209 22.983 0.584602 22.74 0.584602 22.5008C0.580229 17.2738 0.56961 12.0463 0.5871 6.8194C0.593347 4.9199 1.93321 3.33646 3.79778 2.97043C4.2088 2.88985 4.6398 2.90484 5.06206 2.8861C5.3013 2.87549 5.54179 2.88423 5.81664 2.88423C5.81664 2.62501 5.83038 2.3789 5.81414 2.13405C5.77291 1.51629 6.01902 1.09279 6.61493 0.88916H7.01408C7.60874 1.09217 7.8561 1.51442 7.81488 2.13155C7.79864 2.37641 7.81238 2.62251 7.81238 2.86674H12.3011C12.3011 2.61064 12.3142 2.37016 12.2986 2.13155C12.2574 1.51442 12.5047 1.09217 13.0994 0.88916H13.4985C14.0932 1.09217 14.3406 1.51442 14.2993 2.13155C14.2831 2.37641 14.2968 2.62251 14.2968 2.86674H18.8355C18.8355 2.61002 18.8486 2.36953 18.833 2.13155C18.7918 1.51442 19.0391 1.09217 19.6338 0.88916H20.0329C20.6276 1.09217 20.875 1.51504 20.8337 2.13217C20.8175 2.37703 20.8312 2.62313 20.8312 2.88798C21.3278 2.88798 21.7926 2.86612 22.2548 2.89173C23.8289 2.9798 24.9933 3.7306 25.7029 5.13477C25.904 5.53329 25.9833 5.99302 26.1182 6.42464V12.7584L26.1139 12.759Z"
      fill="#CBCBCB"
    />
    <path
      d="M26.1135 20.8881C25.9724 21.4572 25.8818 22.045 25.6819 22.5928C24.7356 25.1812 21.866 26.8234 19.1525 26.3405C16.7595 25.9145 15.106 24.546 14.3596 22.2455C13.5919 19.8794 14.1503 17.7412 15.9493 16.0204C17.6052 14.4363 19.6241 13.9579 21.8085 14.6275C24.1397 15.342 25.5426 16.9742 26.0186 19.3797C26.0523 19.5496 26.0817 19.7201 26.1135 19.8906V20.8881ZM24.1178 20.3853C24.1153 18.1616 22.2907 16.3439 20.0682 16.3502C17.8532 16.3571 16.0449 18.166 16.0393 20.3809C16.0336 22.6034 17.8526 24.4267 20.0763 24.4285C22.2995 24.4298 24.1203 22.6084 24.1178 20.3853Z"
      fill="#CBCBCB"
    />
    <path
      d="M7.80823 11.3699C7.80386 11.9183 7.34724 12.3655 6.7988 12.358C6.25036 12.3505 5.80562 11.8902 5.81686 11.3424C5.82748 10.8039 6.27535 10.3661 6.81379 10.3667C7.36223 10.3673 7.8126 10.8214 7.80823 11.3699Z"
      fill="#CBCBCB"
    />
    <path
      d="M11.1583 12.358C10.6099 12.3618 10.1564 11.9114 10.1558 11.363C10.1558 10.8146 10.6086 10.3636 11.1571 10.3667C11.6955 10.3698 12.1403 10.8108 12.1471 11.3493C12.154 11.8977 11.7061 12.3543 11.1583 12.358Z"
      fill="#CBCBCB"
    />
    <path
      d="M16.4865 11.3507C16.4934 11.8991 16.0449 12.3551 15.4964 12.3582C14.948 12.3613 14.4945 11.9103 14.4951 11.3619C14.4951 10.8235 14.9342 10.3769 15.4727 10.3669C16.0205 10.3569 16.4802 10.8022 16.4865 11.3507Z"
      fill="#CBCBCB"
    />
    <path
      d="M19.8403 12.358C19.2919 12.3636 18.8365 11.9152 18.834 11.3667C18.8315 10.8183 19.2831 10.3655 19.8316 10.3667C20.37 10.368 20.816 10.8071 20.8254 11.3455C20.8347 11.8933 20.3881 12.3518 19.8403 12.358Z"
      fill="#CBCBCB"
    />
    <path
      d="M6.81945 16.6974C6.27101 16.7011 5.81752 16.2508 5.81689 15.7024C5.81689 15.1539 6.26976 14.7029 6.8182 14.7061C7.35665 14.7092 7.80139 15.1502 7.80827 15.6886C7.81514 16.237 7.36727 16.6936 6.81945 16.6974Z"
      fill="#CBCBCB"
    />
    <path
      d="M11.1395 14.7061C11.6879 14.6993 12.1439 15.1477 12.1471 15.6962C12.1502 16.2446 11.6992 16.6981 11.1514 16.6981C10.6129 16.6981 10.1657 16.259 10.1557 15.7205C10.1457 15.1727 10.5911 14.713 11.1395 14.7068V14.7061Z"
      fill="#CBCBCB"
    />
    <path
      d="M7.80832 20.0376C7.80957 20.5861 7.35732 21.0377 6.80888 21.0358C6.26045 21.0339 5.81132 20.5786 5.81695 20.0301C5.82257 19.4917 6.26544 19.0495 6.80389 19.0445C7.35233 19.0395 7.80707 19.4892 7.80832 20.0376Z"
      fill="#CBCBCB"
    />
    <path
      d="M11.1459 19.0444C11.6943 19.0413 12.1478 19.4923 12.1472 20.0407C12.1472 20.5892 11.6931 21.0395 11.1446 21.0358C10.6062 21.032 10.1621 20.5904 10.1558 20.052C10.1496 19.5036 10.5975 19.0476 11.1459 19.0444Z"
      fill="#CBCBCB"
    />
    <path
      d="M21.0751 19.3936C21.2538 19.3936 21.4018 19.388 21.5492 19.3949C22.1039 19.4211 22.5231 19.854 22.5206 20.3937C22.5181 20.934 22.0983 21.3681 21.5411 21.3831C21.052 21.3962 20.5617 21.395 20.0726 21.3837C19.5116 21.3706 19.0963 20.9621 19.0863 20.403C19.0731 19.7147 19.0738 19.0251 19.0863 18.3368C19.0963 17.7677 19.5429 17.3417 20.0926 17.3492C20.6323 17.3561 21.0576 17.7783 21.0745 18.3374C21.0845 18.6766 21.0764 19.0164 21.0764 19.3936H21.0751Z"
      fill="#CBCBCB"
    />
  </g>
  <defs>
    <clipPath id="clip0_523_1045">
      <rect
        width="25.5374"
        height="25.5374"
        fill="white"
        transform="translate(0.576172 0.88916)"
      />
    </clipPath>
  </defs>
</svg>
