<svg xmlns="http://www.w3.org/2000/svg" width="51.753" height="65.642" viewBox="0 0 51.753 65.642">
  <path id="new_6" d="M46.911,71.539A2.99,2.99,0,0,1,45.2,72.1a2.907,2.907,0,0,1-2.4-1.241,2.951,2.951,0,0,1,.686-4.113,17.306,17.306,0,0,0,6.773-14.775,15.19,15.19,0,0,0-3.522-9.444c-.91,2.778-2.813,5.248-6.123,5.91a.8.8,0,0,1-.165.024c-3.688.532-6.879-.449-8.735-2.683a7.877,7.877,0,0,1-1.135-7.754,22.749,22.749,0,0,1,1.537-3.534c2.376-4.728,5.224-10.4-1.962-17.564a16.13,16.13,0,0,1-1.513,6.82c-1.879,4.125-5.272,7.541-8.546,10.839C16.51,38.184,12.81,41.907,11.1,46.5a18.505,18.505,0,0,0-.366,9.243c1.028,4.468,3.865,7.825,8.428,9.976a2.951,2.951,0,1,1-2.506,5.343C3.012,64.648,3.413,50.961,5.529,44.614c.012-.024.024-.059.035-.083,2.139-5.815,6.5-10.212,10.354-14.089,6.962-7.009,10.709-11.394,6.714-19.763A2.951,2.951,0,0,1,26.888,6.92c8.345,5.366,12.789,11,13.6,17.257C41.2,29.567,39,33.94,37.4,37.143a18.28,18.28,0,0,0-1.158,2.577c-.012.035-.024.083-.035.118A2.483,2.483,0,0,0,36.249,42c.39.473,1.454.875,3.274.638,1.962-.473,1.986-4.432,1.986-4.468a8.2,8.2,0,0,1,.047-1.04,3.205,3.205,0,0,1,5.414-2.057c5.555,3.451,8.889,9.515,9.184,16.666A23.243,23.243,0,0,1,46.911,71.539Z" transform="translate(-4.421 -6.453)" />
</svg>
