<svg xmlns="http://www.w3.org/2000/svg" width="22.599" height="21.656" viewBox="0 0 22.599 21.656">
  <g id="paper-plane" transform="translate(-768.01 -348)">
    <path id="Path_128" data-name="Path 128" d="M789.726,348h.353a.963.963,0,0,1,.53.53v.4c-.059.338-.124.674-.175,1.014q-.434,2.9-.863,5.8t-.859,5.779c-.232,1.563-.464,3.126-.7,4.688a.8.8,0,0,1-.165.375.733.733,0,0,1-.884.172q-4.782-1.639-9.566-3.273c-.051-.018-.1-.042-.169-.071l9.47-11.41a.237.237,0,0,0-.169.066q-5.987,5.119-11.971,10.242a.349.349,0,0,1-.392.073q-2.717-.937-5.44-1.86a1.069,1.069,0,0,1-.711-.561v-.353a.981.981,0,0,1,.478-.518q5.773-3.007,11.54-6.022Q784.878,350.536,789.726,348Z" fill="#ffd701"/>
    <path id="Path_129" data-name="Path 129" d="M911.9,631.2l-1.371,1.866c-.387.527-.769,1.057-1.162,1.578a.7.7,0,0,1-1.216-.069.758.758,0,0,1-.072-.317c0-1.41,0-2.821,0-4.231a1.15,1.15,0,0,1,.016-.129Z" transform="translate(-131.825 -265.309)" fill="#ffd701"/>
  </g>
</svg>
